<svg xmlns="http://www.w3.org/2000/svg" width="19" height="25"><path data-name="Forma 1" d="M15.833 9.37c0 3.13-3.166 6.21-3.166 9.38H6.333c0-3.08-3.166-6.25-3.166-9.38a6.334 6.334 0 0112.666 0zm-3.958 12.5h-4.75a.785.785 0 100 1.57h.145a2.374 2.374 0 004.46 0h.145a.785.785 0 100-1.57zm0-2.34h-4.75a.78.78 0 100 1.56h4.75a.78.78 0 100-1.56zm-11-14.17l1.421.81a7.974 7.974 0 01.8-1.35L1.67 4.01zm9.415-3.72V0H8.706v1.64a3.96 3.96 0 011.586 0zm-4.036.63L5.434.86l-1.373.79.825 1.4a7.752 7.752 0 011.37-.78zm11.867 3.09l-.791-1.35-1.426.81a8.051 8.051 0 01.8 1.35zm-3.188-3.71l-1.37-.79-.82 1.41a7.743 7.743 0 011.367.78zM1.581 9.37a7.365 7.365 0 01.081-.78H0v1.57h1.667a6.6 6.6 0 01-.084-.79zm15.753-.78a7.365 7.365 0 01.081.78 6.6 6.6 0 01-.084.79H19V8.59h-1.664zm-1.3 5.41l1.3.74.791-1.36-1.438-.81c-.201.48-.418.96-.651 1.43zM.875 13.38l.791 1.36 1.285-.73c-.232-.48-.448-.95-.644-1.44z" fill="#fff" fill-rule="evenodd"/></svg>