<svg xmlns="http://www.w3.org/2000/svg" viewBox="0 0 18 24"><defs><style>.cls-1{fill-rule:evenodd;}</style></defs><g id="Layer_2" data-name="Layer 2"><g id="Layer_1-2" data-name="Layer 1"><path id="Forma_1" data-name="Forma 1" class="cls-1" d="M17.13,9.36H13.38a.92.92,0,0,0-.88,1,.94.94,0,0,0,.88.89h2.85V22.15H1.77V11.21H4.91a.94.94,0,0,0,.89-1,.93.93,0,0,0-.89-.88h-4a.93.93,0,0,0-.87,1V23.15A.84.84,0,0,0,.82,24H17.13a.83.83,0,0,0,.87-.79V10.33A.93.93,0,0,0,17.13,9.36ZM8.85,16.29a.9.9,0,0,0,.89-.92V2.83l3.78,3.52a.86.86,0,0,0,1.25-.08A1,1,0,0,0,14.7,5L9.61.23A.87.87,0,0,0,8.47.2a.85.85,0,0,0-.38.37L3.67,5a1,1,0,0,0,0,1.31.86.86,0,0,0,1.22.07l0,0L8,3.25V15.37A.9.9,0,0,0,8.85,16.29Z"/></g></g></svg>